<svg xmlns="http://www.w3.org/2000/svg" xmlns:xlink="http://www.w3.org/1999/xlink" width="1000" zoomAndPan="magnify" viewBox="0 0 750 225" height="300" preserveAspectRatio="xMidYMid meet" version="1.0"><defs><g/><clipPath id="0973c578c8"><rect x="0" width="96" y="0" height="46"/></clipPath><clipPath id="26c4f74a2d"><path d="M 0 11 L 32 11 L 32 43 L 0 43 Z M 0 11 " clip-rule="nonzero"/></clipPath><clipPath id="0d39aca4e8"><rect x="0" width="33" y="0" height="44"/></clipPath></defs><g fill="#132135" fill-opacity="1"><g transform="translate(3.319461, 145.658855)"><g><path d="M 12.5625 -87.625 L 79.8125 -87.625 L 79.8125 -72.28125 L 28.75 -72.28125 L 28.75 -52.609375 L 64.328125 -52.609375 L 64.328125 -37.25 L 28.75 -37.25 L 28.75 -15.34375 L 79.8125 -15.34375 L 79.8125 0 L 12.5625 0 L 12.5625 -37.25 L 2.09375 -37.25 L 2.09375 -52.609375 L 12.5625 -52.609375 Z M 12.5625 -87.625 "/></g></g></g><g fill="#132135" fill-opacity="1"><g transform="translate(88.568317, 145.658855)"><g><path d="M 6 -47.296875 C 6 -50.179688 6.578125 -52.945312 7.734375 -55.59375 C 8.898438 -58.25 10.625 -60.597656 12.90625 -62.640625 C 15.1875 -64.691406 17.976562 -66.320312 21.28125 -67.53125 C 24.582031 -68.738281 28.328125 -69.34375 32.515625 -69.34375 C 37.253906 -69.34375 41.785156 -68.597656 46.109375 -67.109375 C 50.441406 -65.617188 54.835938 -63.25 59.296875 -60 L 51.0625 -49.8125 L 50.796875 -50.09375 C 48.367188 -52.039062 45.664062 -53.734375 42.6875 -55.171875 C 39.71875 -56.617188 36.460938 -57.34375 32.921875 -57.34375 C 31.347656 -57.34375 29.816406 -57.15625 28.328125 -56.78125 C 26.835938 -56.414062 25.507812 -55.859375 24.34375 -55.109375 C 23.1875 -54.367188 22.257812 -53.484375 21.5625 -52.453125 C 20.863281 -51.429688 20.515625 -50.222656 20.515625 -48.828125 C 20.515625 -46.785156 21.253906 -45.226562 22.734375 -44.15625 C 24.222656 -43.09375 26.410156 -42.28125 29.296875 -41.71875 L 43.953125 -38.921875 C 49.992188 -37.804688 54.476562 -35.785156 57.40625 -32.859375 C 60.34375 -29.929688 61.8125 -25.953125 61.8125 -20.921875 C 61.8125 -18.410156 61.273438 -15.804688 60.203125 -13.109375 C 59.140625 -10.410156 57.441406 -7.96875 55.109375 -5.78125 C 52.785156 -3.601562 49.832031 -1.789062 46.25 -0.34375 C 42.664062 1.09375 38.316406 1.8125 33.203125 1.8125 C 27.628906 1.8125 22.351562 0.859375 17.375 -1.046875 C 12.394531 -2.953125 7.535156 -5.953125 2.796875 -10.046875 L 12.703125 -20.09375 C 12.796875 -19.90625 13.421875 -19.273438 14.578125 -18.203125 C 15.742188 -17.140625 17.28125 -16 19.1875 -14.78125 C 21.09375 -13.570312 23.300781 -12.503906 25.8125 -11.578125 C 28.320312 -10.648438 31.019531 -10.1875 33.90625 -10.1875 C 35.945312 -10.1875 37.804688 -10.441406 39.484375 -10.953125 C 41.160156 -11.460938 42.578125 -12.132812 43.734375 -12.96875 C 44.898438 -13.8125 45.785156 -14.742188 46.390625 -15.765625 C 46.992188 -16.785156 47.296875 -17.765625 47.296875 -18.703125 C 47.296875 -21.117188 46.410156 -22.90625 44.640625 -24.0625 C 42.878906 -25.226562 40.835938 -26.046875 38.515625 -26.515625 L 30.28125 -28.046875 C 25.625 -28.878906 21.738281 -29.898438 18.625 -31.109375 C 15.507812 -32.316406 13.019531 -33.710938 11.15625 -35.296875 C 9.300781 -36.878906 7.976562 -38.644531 7.1875 -40.59375 C 6.394531 -42.550781 6 -44.785156 6 -47.296875 Z M 6 -47.296875 "/></g></g></g><g fill="#132135" fill-opacity="1"><g transform="translate(153.167695, 145.658855)"><g><path d="M 4.1875 -33.765625 C 4.1875 -38.234375 5.019531 -42.601562 6.6875 -46.875 C 8.363281 -51.15625 10.804688 -54.945312 14.015625 -58.25 C 17.234375 -61.550781 21.144531 -64.222656 25.75 -66.265625 C 30.351562 -68.316406 35.582031 -69.34375 41.4375 -69.34375 C 54 -69.34375 64 -64.039062 71.4375 -53.4375 L 71.71875 -53.015625 L 59.015625 -45.484375 L 58.75 -45.90625 C 54.28125 -52.414062 48.507812 -55.671875 41.4375 -55.671875 C 38.28125 -55.671875 35.351562 -55.085938 32.65625 -53.921875 C 29.957031 -52.765625 27.628906 -51.207031 25.671875 -49.25 C 23.722656 -47.300781 22.210938 -45 21.140625 -42.34375 C 20.066406 -39.695312 19.53125 -36.835938 19.53125 -33.765625 C 19.53125 -30.691406 20.066406 -27.828125 21.140625 -25.171875 C 22.210938 -22.523438 23.722656 -20.222656 25.671875 -18.265625 C 27.628906 -16.316406 29.957031 -14.757812 32.65625 -13.59375 C 35.351562 -12.4375 38.28125 -11.859375 41.4375 -11.859375 C 44.039062 -11.859375 46.363281 -12.253906 48.40625 -13.046875 C 50.457031 -13.835938 52.179688 -14.789062 53.578125 -15.90625 C 54.972656 -17.019531 56.113281 -18.15625 57 -19.3125 C 57.882812 -20.476562 58.554688 -21.390625 59.015625 -22.046875 L 71.71875 -14.515625 C 70.320312 -12.273438 68.578125 -10.15625 66.484375 -8.15625 C 64.390625 -6.15625 62.039062 -4.410156 59.4375 -2.921875 C 56.832031 -1.441406 54.019531 -0.285156 51 0.546875 C 47.976562 1.390625 44.789062 1.8125 41.4375 1.8125 C 35.582031 1.8125 30.351562 0.8125 25.75 -1.1875 C 21.144531 -3.1875 17.234375 -5.859375 14.015625 -9.203125 C 10.804688 -12.554688 8.363281 -16.367188 6.6875 -20.640625 C 5.019531 -24.921875 4.1875 -29.296875 4.1875 -33.765625 Z M 4.1875 -33.765625 "/></g></g></g><g fill="#132135" fill-opacity="1"><g transform="translate(228.091806, 145.658855)"><g><path d="M 41.296875 -55.671875 C 38.046875 -55.671875 35.09375 -55.085938 32.4375 -53.921875 C 29.789062 -52.765625 27.515625 -51.160156 25.609375 -49.109375 C 23.703125 -47.066406 22.210938 -44.71875 21.140625 -42.0625 C 20.066406 -39.414062 19.53125 -36.648438 19.53125 -33.765625 C 19.53125 -30.691406 20.066406 -27.828125 21.140625 -25.171875 C 22.210938 -22.523438 23.722656 -20.222656 25.671875 -18.265625 C 27.628906 -16.316406 29.957031 -14.757812 32.65625 -13.59375 C 35.351562 -12.4375 38.28125 -11.859375 41.4375 -11.859375 C 44.601562 -11.859375 47.535156 -12.4375 50.234375 -13.59375 C 52.929688 -14.757812 55.253906 -16.316406 57.203125 -18.265625 C 59.160156 -20.222656 60.671875 -22.523438 61.734375 -25.171875 C 62.804688 -27.828125 63.34375 -30.691406 63.34375 -33.765625 C 63.34375 -36.742188 62.804688 -39.554688 61.734375 -42.203125 C 60.671875 -44.859375 59.160156 -47.1875 57.203125 -49.1875 C 55.253906 -51.1875 52.929688 -52.765625 50.234375 -53.921875 C 47.535156 -55.085938 44.554688 -55.671875 41.296875 -55.671875 Z M 4.1875 -33.765625 C 4.1875 -38.234375 5.019531 -42.601562 6.6875 -46.875 C 8.363281 -51.15625 10.804688 -54.945312 14.015625 -58.25 C 17.234375 -61.550781 21.144531 -64.222656 25.75 -66.265625 C 30.351562 -68.316406 35.582031 -69.34375 41.4375 -69.34375 C 47.300781 -69.34375 52.535156 -68.316406 57.140625 -66.265625 C 61.742188 -64.222656 65.648438 -61.550781 68.859375 -58.25 C 72.066406 -54.945312 74.507812 -51.15625 76.1875 -46.875 C 77.863281 -42.601562 78.703125 -38.234375 78.703125 -33.765625 C 78.703125 -29.296875 77.863281 -24.921875 76.1875 -20.640625 C 74.507812 -16.367188 72.066406 -12.582031 68.859375 -9.28125 C 65.648438 -5.976562 61.742188 -3.300781 57.140625 -1.25 C 52.535156 0.789062 47.300781 1.8125 41.4375 1.8125 C 35.582031 1.8125 30.351562 0.789062 25.75 -1.25 C 21.144531 -3.300781 17.234375 -5.976562 14.015625 -9.28125 C 10.804688 -12.582031 8.363281 -16.367188 6.6875 -20.640625 C 5.019531 -24.921875 4.1875 -29.296875 4.1875 -33.765625 Z M 4.1875 -33.765625 "/></g></g></g><g fill="#132135" fill-opacity="1"><g transform="translate(310.968771, 145.658855)"><g><path d="M 44.65625 -55.671875 C 41.582031 -55.671875 38.765625 -55.085938 36.203125 -53.921875 C 33.648438 -52.765625 31.441406 -51.207031 29.578125 -49.25 C 27.722656 -47.300781 26.28125 -45 25.25 -42.34375 C 24.226562 -39.695312 23.71875 -36.835938 23.71875 -33.765625 C 23.71875 -30.597656 24.25 -27.6875 25.3125 -25.03125 C 26.382812 -22.382812 27.851562 -20.082031 29.71875 -18.125 C 31.582031 -16.175781 33.789062 -14.644531 36.34375 -13.53125 C 38.90625 -12.414062 41.722656 -11.859375 44.796875 -11.859375 C 47.859375 -11.859375 50.664062 -12.414062 53.21875 -13.53125 C 55.78125 -14.644531 57.992188 -16.175781 59.859375 -18.125 C 61.722656 -20.082031 63.1875 -22.382812 64.25 -25.03125 C 65.320312 -27.6875 65.859375 -30.597656 65.859375 -33.765625 C 65.859375 -36.835938 65.34375 -39.695312 64.3125 -42.34375 C 63.289062 -45 61.847656 -47.328125 59.984375 -49.328125 C 58.128906 -51.328125 55.898438 -52.882812 53.296875 -54 C 50.691406 -55.113281 47.8125 -55.671875 44.65625 -55.671875 Z M 23.71875 -87.625 L 23.71875 -59.296875 L 24 -59.296875 C 24.644531 -60.410156 25.664062 -61.570312 27.0625 -62.78125 C 28.457031 -64 30.128906 -65.09375 32.078125 -66.0625 C 34.035156 -67.039062 36.175781 -67.832031 38.5 -68.4375 C 40.832031 -69.039062 43.347656 -69.34375 46.046875 -69.34375 C 50.421875 -69.34375 54.722656 -68.550781 58.953125 -66.96875 C 63.179688 -65.394531 66.945312 -63.09375 70.25 -60.0625 C 73.550781 -57.039062 76.203125 -53.320312 78.203125 -48.90625 C 80.203125 -44.488281 81.203125 -39.441406 81.203125 -33.765625 C 81.203125 -28.179688 80.203125 -23.179688 78.203125 -18.765625 C 76.203125 -14.347656 73.550781 -10.601562 70.25 -7.53125 C 66.945312 -4.46875 63.179688 -2.144531 58.953125 -0.5625 C 54.722656 1.019531 50.421875 1.8125 46.046875 1.8125 C 43.347656 1.8125 40.8125 1.507812 38.4375 0.90625 C 36.0625 0.300781 33.921875 -0.488281 32.015625 -1.46875 C 30.109375 -2.445312 28.457031 -3.539062 27.0625 -4.75 C 25.664062 -5.957031 24.644531 -7.117188 24 -8.234375 L 23.71875 -8.234375 L 23.71875 0 L 9.203125 0 L 9.203125 -87.625 Z M 23.71875 -87.625 "/></g></g></g><g fill="#132135" fill-opacity="1"><g transform="translate(396.357165, 145.658855)"><g><path d="M 40.46875 -56.515625 C 35.71875 -56.515625 31.644531 -55.09375 28.25 -52.25 C 24.851562 -49.414062 22.597656 -45.582031 21.484375 -40.75 L 60.5625 -40.75 C 59.164062 -45.488281 56.742188 -49.300781 53.296875 -52.1875 C 49.859375 -55.070312 45.582031 -56.515625 40.46875 -56.515625 Z M 5.296875 -33.765625 C 5.296875 -38.328125 6.132812 -42.742188 7.8125 -47.015625 C 9.488281 -51.296875 11.929688 -55.085938 15.140625 -58.390625 C 18.347656 -61.691406 22.253906 -64.34375 26.859375 -66.34375 C 31.460938 -68.34375 36.648438 -69.34375 42.421875 -69.34375 C 46.046875 -69.34375 49.972656 -68.578125 54.203125 -67.046875 C 58.441406 -65.515625 62.328125 -63.09375 65.859375 -59.78125 C 69.390625 -56.476562 72.296875 -52.269531 74.578125 -47.15625 C 76.859375 -42.039062 77.859375 -35.90625 77.578125 -28.75 L 21.484375 -28.75 C 21.671875 -26.144531 22.390625 -23.769531 23.640625 -21.625 C 24.898438 -19.488281 26.457031 -17.628906 28.3125 -16.046875 C 30.175781 -14.460938 32.316406 -13.226562 34.734375 -12.34375 C 37.160156 -11.457031 39.628906 -11.015625 42.140625 -11.015625 C 46.328125 -11.015625 50.046875 -11.992188 53.296875 -13.953125 C 56.554688 -15.910156 59.347656 -18.421875 61.671875 -21.484375 L 73.953125 -14.65625 C 71.441406 -11.488281 68.8125 -8.859375 66.0625 -6.765625 C 63.320312 -4.671875 60.601562 -2.992188 57.90625 -1.734375 C 55.207031 -0.484375 52.53125 0.414062 49.875 0.96875 C 47.226562 1.53125 44.742188 1.8125 42.421875 1.8125 C 36.648438 1.8125 31.484375 0.8125 26.921875 -1.1875 C 22.367188 -3.1875 18.488281 -5.835938 15.28125 -9.140625 C 12.070312 -12.441406 9.601562 -16.226562 7.875 -20.5 C 6.15625 -24.78125 5.296875 -29.203125 5.296875 -33.765625 Z M 5.296875 -33.765625 "/></g></g></g><g fill="#132135" fill-opacity="1"><g transform="translate(479.23413, 145.658855)"><g><path d="M 40.875 -55.671875 C 37.90625 -55.671875 35.140625 -55.085938 32.578125 -53.921875 C 30.023438 -52.765625 27.769531 -51.1875 25.8125 -49.1875 C 23.863281 -47.1875 22.328125 -44.859375 21.203125 -42.203125 C 20.085938 -39.554688 19.53125 -36.742188 19.53125 -33.765625 C 19.53125 -30.691406 20.085938 -27.828125 21.203125 -25.171875 C 22.328125 -22.523438 23.863281 -20.222656 25.8125 -18.265625 C 27.769531 -16.316406 30.050781 -14.757812 32.65625 -13.59375 C 35.257812 -12.4375 38.046875 -11.859375 41.015625 -11.859375 C 43.898438 -11.859375 46.617188 -12.4375 49.171875 -13.59375 C 51.734375 -14.757812 53.988281 -16.316406 55.9375 -18.265625 C 57.894531 -20.222656 59.429688 -22.523438 60.546875 -25.171875 C 61.671875 -27.828125 62.234375 -30.691406 62.234375 -33.765625 C 62.234375 -36.742188 61.671875 -39.554688 60.546875 -42.203125 C 59.429688 -44.859375 57.921875 -47.1875 56.015625 -49.1875 C 54.109375 -51.1875 51.851562 -52.765625 49.25 -53.921875 C 46.644531 -55.085938 43.851562 -55.671875 40.875 -55.671875 Z M 61.671875 -87.625 L 76.1875 -87.625 L 76.1875 0 L 61.671875 0 L 61.671875 -8.234375 L 61.390625 -8.234375 C 58.972656 -5.066406 55.8125 -2.597656 51.90625 -0.828125 C 48 0.929688 43.765625 1.8125 39.203125 1.8125 C 33.628906 1.8125 28.65625 0.765625 24.28125 -1.328125 C 19.90625 -3.421875 16.226562 -6.164062 13.25 -9.5625 C 10.28125 -12.957031 8.023438 -16.769531 6.484375 -21 C 4.953125 -25.226562 4.1875 -29.484375 4.1875 -33.765625 C 4.1875 -37.859375 5.019531 -42.019531 6.6875 -46.25 C 8.363281 -50.488281 10.738281 -54.300781 13.8125 -57.6875 C 16.882812 -61.082031 20.628906 -63.875 25.046875 -66.0625 C 29.460938 -68.25 34.414062 -69.34375 39.90625 -69.34375 C 44.644531 -69.34375 48.875 -68.457031 52.59375 -66.6875 C 56.320312 -64.925781 59.253906 -62.460938 61.390625 -59.296875 L 61.671875 -59.296875 Z M 61.671875 -87.625 "/></g></g></g><g fill="#132135" fill-opacity="1"><g transform="translate(564.622523, 145.658855)"><g><path d="M 41.296875 -55.671875 C 38.046875 -55.671875 35.09375 -55.085938 32.4375 -53.921875 C 29.789062 -52.765625 27.515625 -51.160156 25.609375 -49.109375 C 23.703125 -47.066406 22.210938 -44.71875 21.140625 -42.0625 C 20.066406 -39.414062 19.53125 -36.648438 19.53125 -33.765625 C 19.53125 -30.691406 20.066406 -27.828125 21.140625 -25.171875 C 22.210938 -22.523438 23.722656 -20.222656 25.671875 -18.265625 C 27.628906 -16.316406 29.957031 -14.757812 32.65625 -13.59375 C 35.351562 -12.4375 38.28125 -11.859375 41.4375 -11.859375 C 44.601562 -11.859375 47.535156 -12.4375 50.234375 -13.59375 C 52.929688 -14.757812 55.253906 -16.316406 57.203125 -18.265625 C 59.160156 -20.222656 60.671875 -22.523438 61.734375 -25.171875 C 62.804688 -27.828125 63.34375 -30.691406 63.34375 -33.765625 C 63.34375 -36.742188 62.804688 -39.554688 61.734375 -42.203125 C 60.671875 -44.859375 59.160156 -47.1875 57.203125 -49.1875 C 55.253906 -51.1875 52.929688 -52.765625 50.234375 -53.921875 C 47.535156 -55.085938 44.554688 -55.671875 41.296875 -55.671875 Z M 4.1875 -33.765625 C 4.1875 -38.234375 5.019531 -42.601562 6.6875 -46.875 C 8.363281 -51.15625 10.804688 -54.945312 14.015625 -58.25 C 17.234375 -61.550781 21.144531 -64.222656 25.75 -66.265625 C 30.351562 -68.316406 35.582031 -69.34375 41.4375 -69.34375 C 47.300781 -69.34375 52.535156 -68.316406 57.140625 -66.265625 C 61.742188 -64.222656 65.648438 -61.550781 68.859375 -58.25 C 72.066406 -54.945312 74.507812 -51.15625 76.1875 -46.875 C 77.863281 -42.601562 78.703125 -38.234375 78.703125 -33.765625 C 78.703125 -29.296875 77.863281 -24.921875 76.1875 -20.640625 C 74.507812 -16.367188 72.066406 -12.582031 68.859375 -9.28125 C 65.648438 -5.976562 61.742188 -3.300781 57.140625 -1.25 C 52.535156 0.789062 47.300781 1.8125 41.4375 1.8125 C 35.582031 1.8125 30.351562 0.789062 25.75 -1.25 C 21.144531 -3.300781 17.234375 -5.976562 14.015625 -9.28125 C 10.804688 -12.582031 8.363281 -16.367188 6.6875 -20.640625 C 5.019531 -24.921875 4.1875 -29.296875 4.1875 -33.765625 Z M 4.1875 -33.765625 "/></g></g></g><g transform="matrix(1, 0, 0, 1, 649, 115)"><g clip-path="url(#0973c578c8)"><g fill="#93e816" fill-opacity="1"><g transform="translate(0.788585, 28.204486)"><g><path d="M 3.265625 -2.15625 C 3.265625 -2.925781 3.523438 -3.570312 4.046875 -4.09375 C 4.578125 -4.625 5.226562 -4.890625 6 -4.890625 C 6.78125 -4.890625 7.429688 -4.625 7.953125 -4.09375 C 8.472656 -3.570312 8.734375 -2.925781 8.734375 -2.15625 C 8.734375 -1.375 8.472656 -0.722656 7.953125 -0.203125 C 7.429688 0.316406 6.78125 0.578125 6 0.578125 C 5.226562 0.578125 4.578125 0.316406 4.046875 -0.203125 C 3.523438 -0.722656 3.265625 -1.375 3.265625 -2.15625 Z M 3.265625 -2.15625 "/></g></g></g><g fill="#93e816" fill-opacity="1"><g transform="translate(12.799833, 28.204486)"><g><path d="M 13.125 -17.875 C 12.175781 -17.875 11.28125 -17.6875 10.4375 -17.3125 C 9.601562 -16.945312 8.878906 -16.441406 8.265625 -15.796875 C 7.648438 -15.148438 7.164062 -14.398438 6.8125 -13.546875 C 6.457031 -12.703125 6.28125 -11.800781 6.28125 -10.84375 C 6.28125 -9.851562 6.457031 -8.929688 6.8125 -8.078125 C 7.164062 -7.234375 7.65625 -6.492188 8.28125 -5.859375 C 8.914062 -5.234375 9.648438 -4.734375 10.484375 -4.359375 C 11.316406 -3.992188 12.210938 -3.8125 13.171875 -3.8125 C 14.097656 -3.8125 14.972656 -3.992188 15.796875 -4.359375 C 16.617188 -4.734375 17.34375 -5.234375 17.96875 -5.859375 C 18.59375 -6.492188 19.082031 -7.234375 19.4375 -8.078125 C 19.800781 -8.929688 19.984375 -9.851562 19.984375 -10.84375 C 19.984375 -11.800781 19.800781 -12.703125 19.4375 -13.546875 C 19.082031 -14.398438 18.597656 -15.148438 17.984375 -15.796875 C 17.378906 -16.441406 16.65625 -16.945312 15.8125 -17.3125 C 14.976562 -17.6875 14.082031 -17.875 13.125 -17.875 Z M 1.34375 -10.84375 C 1.34375 -12.15625 1.609375 -13.488281 2.140625 -14.84375 C 2.679688 -16.207031 3.445312 -17.4375 4.4375 -18.53125 C 5.425781 -19.625 6.628906 -20.519531 8.046875 -21.21875 C 9.460938 -21.914062 11.050781 -22.265625 12.8125 -22.265625 C 14.34375 -22.265625 15.703125 -21.976562 16.890625 -21.40625 C 18.085938 -20.84375 19.03125 -20.054688 19.71875 -19.046875 L 19.8125 -19.046875 L 19.8125 -21.6875 L 24.46875 -21.6875 L 24.46875 0 L 19.8125 0 L 19.8125 -2.640625 L 19.71875 -2.640625 C 18.9375 -1.628906 17.914062 -0.835938 16.65625 -0.265625 C 15.40625 0.296875 14.050781 0.578125 12.59375 0.578125 C 10.800781 0.578125 9.203125 0.242188 7.796875 -0.421875 C 6.390625 -1.097656 5.207031 -1.976562 4.25 -3.0625 C 3.300781 -4.15625 2.578125 -5.378906 2.078125 -6.734375 C 1.585938 -8.097656 1.34375 -9.46875 1.34375 -10.84375 Z M 1.34375 -10.84375 "/></g></g></g><g fill="#93e816" fill-opacity="1"><g transform="translate(40.228502, 28.204486)"><g><path d="M 14.203125 -17.875 C 13.273438 -17.875 12.398438 -17.6875 11.578125 -17.3125 C 10.765625 -16.945312 10.050781 -16.441406 9.4375 -15.796875 C 8.820312 -15.148438 8.332031 -14.398438 7.96875 -13.546875 C 7.613281 -12.703125 7.4375 -11.800781 7.4375 -10.84375 C 7.4375 -9.851562 7.613281 -8.929688 7.96875 -8.078125 C 8.332031 -7.234375 8.828125 -6.492188 9.453125 -5.859375 C 10.078125 -5.234375 10.800781 -4.734375 11.625 -4.359375 C 12.445312 -3.992188 13.320312 -3.8125 14.25 -3.8125 C 15.175781 -3.8125 16.054688 -3.992188 16.890625 -4.359375 C 17.734375 -4.734375 18.46875 -5.234375 19.09375 -5.859375 C 19.71875 -6.492188 20.21875 -7.234375 20.59375 -8.078125 C 20.96875 -8.929688 21.15625 -9.851562 21.15625 -10.84375 C 21.15625 -11.800781 20.972656 -12.703125 20.609375 -13.546875 C 20.253906 -14.398438 19.757812 -15.148438 19.125 -15.796875 C 18.5 -16.441406 17.769531 -16.945312 16.9375 -17.3125 C 16.101562 -17.6875 15.191406 -17.875 14.203125 -17.875 Z M 7.703125 -19.046875 C 8.628906 -20.179688 9.703125 -21 10.921875 -21.5 C 12.148438 -22.007812 13.453125 -22.265625 14.828125 -22.265625 C 16.617188 -22.265625 18.21875 -21.925781 19.625 -21.25 C 21.03125 -20.582031 22.210938 -19.703125 23.171875 -18.609375 C 24.128906 -17.523438 24.851562 -16.300781 25.34375 -14.9375 C 25.832031 -13.582031 26.078125 -12.21875 26.078125 -10.84375 C 26.078125 -9.53125 25.804688 -8.191406 25.265625 -6.828125 C 24.734375 -5.472656 23.972656 -4.242188 22.984375 -3.140625 C 22.003906 -2.035156 20.800781 -1.140625 19.375 -0.453125 C 17.957031 0.234375 16.367188 0.578125 14.609375 0.578125 C 13.085938 0.578125 11.726562 0.296875 10.53125 -0.265625 C 9.332031 -0.835938 8.390625 -1.628906 7.703125 -2.640625 L 7.625 -2.640625 L 7.625 7.484375 L 2.953125 7.484375 L 2.953125 -21.6875 L 7.625 -21.6875 L 7.625 -19.046875 Z M 7.703125 -19.046875 "/></g></g></g><g fill="#93e816" fill-opacity="1"><g transform="translate(67.657175, 28.204486)"><g><path d="M 14.203125 -17.875 C 13.273438 -17.875 12.398438 -17.6875 11.578125 -17.3125 C 10.765625 -16.945312 10.050781 -16.441406 9.4375 -15.796875 C 8.820312 -15.148438 8.332031 -14.398438 7.96875 -13.546875 C 7.613281 -12.703125 7.4375 -11.800781 7.4375 -10.84375 C 7.4375 -9.851562 7.613281 -8.929688 7.96875 -8.078125 C 8.332031 -7.234375 8.828125 -6.492188 9.453125 -5.859375 C 10.078125 -5.234375 10.800781 -4.734375 11.625 -4.359375 C 12.445312 -3.992188 13.320312 -3.8125 14.25 -3.8125 C 15.175781 -3.8125 16.054688 -3.992188 16.890625 -4.359375 C 17.734375 -4.734375 18.46875 -5.234375 19.09375 -5.859375 C 19.71875 -6.492188 20.21875 -7.234375 20.59375 -8.078125 C 20.96875 -8.929688 21.15625 -9.851562 21.15625 -10.84375 C 21.15625 -11.800781 20.972656 -12.703125 20.609375 -13.546875 C 20.253906 -14.398438 19.757812 -15.148438 19.125 -15.796875 C 18.5 -16.441406 17.769531 -16.945312 16.9375 -17.3125 C 16.101562 -17.6875 15.191406 -17.875 14.203125 -17.875 Z M 7.703125 -19.046875 C 8.628906 -20.179688 9.703125 -21 10.921875 -21.5 C 12.148438 -22.007812 13.453125 -22.265625 14.828125 -22.265625 C 16.617188 -22.265625 18.21875 -21.925781 19.625 -21.25 C 21.03125 -20.582031 22.210938 -19.703125 23.171875 -18.609375 C 24.128906 -17.523438 24.851562 -16.300781 25.34375 -14.9375 C 25.832031 -13.582031 26.078125 -12.21875 26.078125 -10.84375 C 26.078125 -9.53125 25.804688 -8.191406 25.265625 -6.828125 C 24.734375 -5.472656 23.972656 -4.242188 22.984375 -3.140625 C 22.003906 -2.035156 20.800781 -1.140625 19.375 -0.453125 C 17.957031 0.234375 16.367188 0.578125 14.609375 0.578125 C 13.085938 0.578125 11.726562 0.296875 10.53125 -0.265625 C 9.332031 -0.835938 8.390625 -1.628906 7.703125 -2.640625 L 7.625 -2.640625 L 7.625 7.484375 L 2.953125 7.484375 L 2.953125 -21.6875 L 7.625 -21.6875 L 7.625 -19.046875 Z M 7.703125 -19.046875 "/></g></g></g></g></g><g transform="matrix(1, 0, 0, 1, 0, 82)"><g clip-path="url(#0d39aca4e8)"><g clip-path="url(#26c4f74a2d)"><g fill="#132135" fill-opacity="1"><g transform="translate(-65.603594, 0.570959)"><g><path d="M 97.53125 26.71875 L 29.671875 26.71875 C 25.421875 26.71875 22.3125 27.3125 20.34375 28.5 C 18.375 29.6875 16.820312 31.316406 15.6875 33.390625 L 10.71875 42.09375 L -2.015625 34.953125 C -0.359375 31.429688 1.320312 28.164062 3.03125 25.15625 C 4.738281 22.15625 6.648438 19.566406 8.765625 17.390625 C 10.890625 15.222656 13.398438 13.539062 16.296875 12.34375 C 19.203125 11.15625 22.675781 10.5625 26.71875 10.5625 L 97.53125 10.5625 Z M 97.53125 26.71875 "/></g></g></g></g></g></g></svg>