<svg xmlns="http://www.w3.org/2000/svg" xmlns:xlink="http://www.w3.org/1999/xlink" width="1000" zoomAndPan="magnify" viewBox="0 0 750 225" height="300" preserveAspectRatio="xMidYMid meet" version="1.0"><defs><g/><clipPath id="2898d1c55d"><rect x="0" width="630" y="0" height="187"/></clipPath><clipPath id="0aa5ede23b"><rect x="0" width="85" y="0" height="47"/></clipPath><clipPath id="f606717047"><path d="M 12 15 L 150.960938 15 L 150.960938 60 L 12 60 Z M 12 15 " clip-rule="nonzero"/></clipPath><clipPath id="afbcf2b738"><rect x="0" width="151" y="0" height="61"/></clipPath></defs><g transform="matrix(1, 0, 0, 1, 55, 38)"><g clip-path="url(#2898d1c55d)"><g fill="#132135" fill-opacity="1"><g transform="translate(1.101894, 122.635147)"><g><path d="M 17 -118.65625 L 108.078125 -118.65625 L 108.078125 -97.875 L 38.921875 -97.875 L 38.921875 -71.234375 L 87.09375 -71.234375 L 87.09375 -50.453125 L 38.921875 -50.453125 L 38.921875 -20.78125 L 108.078125 -20.78125 L 108.078125 0 L 17 0 L 17 -50.453125 L 2.828125 -50.453125 L 2.828125 -71.234375 L 17 -71.234375 Z M 17 -118.65625 "/></g></g></g><g fill="#132135" fill-opacity="1"><g transform="translate(116.541677, 122.635147)"><g><path d="M 32.5 -118.65625 L 32.5 -36.09375 C 32.5 -30.925781 33.222656 -27.144531 34.671875 -24.75 C 36.117188 -22.351562 38.101562 -20.460938 40.625 -19.078125 L 51.203125 -13.03125 L 42.515625 2.453125 C 38.234375 0.441406 34.265625 -1.597656 30.609375 -3.671875 C 26.953125 -5.753906 23.800781 -8.085938 21.15625 -10.671875 C 18.507812 -13.253906 16.460938 -16.304688 15.015625 -19.828125 C 13.566406 -23.359375 12.84375 -27.582031 12.84375 -32.5 L 12.84375 -118.65625 Z M 32.5 -118.65625 "/></g></g></g><g fill="#132135" fill-opacity="1"><g transform="translate(165.664991, 122.635147)"><g><path d="M 13.796875 -121.109375 L 66.5 -67.828125 L 119.21875 -121.109375 L 119.21875 0 L 97.296875 0 L 97.296875 -73.3125 L 66.5 -41.375 L 35.703125 -73.3125 L 35.703125 0 L 13.796875 0 Z M 13.796875 -121.109375 "/></g></g></g><g fill="#132135" fill-opacity="1"><g transform="translate(298.675809, 122.635147)"><g><path d="M 54.796875 -76.515625 C 48.367188 -76.515625 42.851562 -74.59375 38.25 -70.75 C 33.65625 -66.914062 30.601562 -61.722656 29.09375 -55.171875 L 82 -55.171875 C 80.113281 -61.597656 76.835938 -66.757812 72.171875 -70.65625 C 67.515625 -74.5625 61.722656 -76.515625 54.796875 -76.515625 Z M 7.171875 -45.71875 C 7.171875 -51.894531 8.304688 -57.878906 10.578125 -63.671875 C 12.847656 -69.460938 16.15625 -74.59375 20.5 -79.0625 C 24.84375 -83.539062 30.128906 -87.132812 36.359375 -89.84375 C 42.597656 -92.550781 49.625 -93.90625 57.4375 -93.90625 C 62.351562 -93.90625 67.675781 -92.863281 73.40625 -90.78125 C 79.132812 -88.707031 84.390625 -85.429688 89.171875 -80.953125 C 93.960938 -76.484375 97.898438 -70.785156 100.984375 -63.859375 C 104.066406 -56.929688 105.421875 -48.617188 105.046875 -38.921875 L 29.09375 -38.921875 C 29.34375 -35.390625 30.316406 -32.175781 32.015625 -29.28125 C 33.722656 -26.382812 35.835938 -23.863281 38.359375 -21.71875 C 40.878906 -19.582031 43.773438 -17.914062 47.046875 -16.71875 C 50.316406 -15.519531 53.65625 -14.921875 57.0625 -14.921875 C 62.726562 -14.921875 67.765625 -16.242188 72.171875 -18.890625 C 76.578125 -21.535156 80.359375 -24.9375 83.515625 -29.09375 L 100.140625 -19.84375 C 96.734375 -15.5625 93.171875 -12 89.453125 -9.15625 C 85.742188 -6.320312 82.0625 -4.054688 78.40625 -2.359375 C 74.757812 -0.660156 71.140625 0.5625 67.546875 1.3125 C 63.953125 2.070312 60.582031 2.453125 57.4375 2.453125 C 49.625 2.453125 42.628906 1.097656 36.453125 -1.609375 C 30.285156 -4.316406 25.03125 -7.90625 20.6875 -12.375 C 16.34375 -16.84375 13.003906 -21.972656 10.671875 -27.765625 C 8.335938 -33.566406 7.171875 -39.550781 7.171875 -45.71875 Z M 7.171875 -45.71875 "/></g></g></g><g fill="#132135" fill-opacity="1"><g transform="translate(410.903696, 122.635147)"><g><path d="M 32.5 -79.921875 C 33 -80.671875 33.878906 -81.832031 35.140625 -83.40625 C 36.398438 -84.988281 38.160156 -86.566406 40.421875 -88.140625 C 42.691406 -89.710938 45.492188 -91.066406 48.828125 -92.203125 C 52.171875 -93.335938 56.046875 -93.90625 60.453125 -93.90625 C 65.617188 -93.90625 70.375 -92.863281 74.71875 -90.78125 C 79.070312 -88.707031 82.820312 -85.90625 85.96875 -82.375 C 89.113281 -78.851562 91.566406 -74.820312 93.328125 -70.28125 C 95.097656 -65.75 95.984375 -60.960938 95.984375 -55.921875 L 95.984375 0 L 76.328125 0 L 76.328125 -51.578125 C 76.328125 -58.878906 74.46875 -64.484375 70.75 -68.390625 C 67.039062 -72.296875 61.660156 -74.25 54.609375 -74.25 C 50.828125 -74.25 47.550781 -73.617188 44.78125 -72.359375 C 42.007812 -71.097656 39.675781 -69.425781 37.78125 -67.34375 C 35.894531 -65.269531 34.476562 -62.878906 33.53125 -60.171875 C 32.59375 -57.460938 32.125 -54.660156 32.125 -51.765625 L 32.125 0 L 12.46875 0 L 12.46875 -91.453125 L 32.125 -91.453125 L 32.125 -79.921875 Z M 32.5 -79.921875 "/></g></g></g><g fill="#132135" fill-opacity="1"><g transform="translate(519.352881, 122.635147)"><g><path d="M 32.125 -91.453125 L 32.125 -39.671875 C 32.125 -36.773438 32.65625 -34.003906 33.71875 -31.359375 C 34.789062 -28.710938 36.269531 -26.316406 38.15625 -24.171875 C 40.050781 -22.035156 42.351562 -20.335938 45.0625 -19.078125 C 47.769531 -17.816406 50.820312 -17.1875 54.21875 -17.1875 C 57.625 -17.1875 60.679688 -17.816406 63.390625 -19.078125 C 66.097656 -20.335938 68.394531 -22.035156 70.28125 -24.171875 C 72.175781 -26.316406 73.65625 -28.710938 74.71875 -31.359375 C 75.789062 -34.003906 76.328125 -36.773438 76.328125 -39.671875 L 76.328125 -91.453125 L 95.984375 -91.453125 L 95.984375 -37.78125 C 95.984375 -32.238281 94.941406 -27.007812 92.859375 -22.09375 C 90.785156 -17.1875 87.921875 -12.90625 84.265625 -9.25 C 80.609375 -5.601562 76.195312 -2.738281 71.03125 -0.65625 C 65.875 1.414062 60.269531 2.453125 54.21875 2.453125 C 48.175781 2.453125 42.570312 1.414062 37.40625 -0.65625 C 32.238281 -2.738281 27.828125 -5.601562 24.171875 -9.25 C 20.523438 -12.90625 17.660156 -17.1875 15.578125 -22.09375 C 13.503906 -27.007812 12.46875 -32.238281 12.46875 -37.78125 L 12.46875 -91.453125 Z M 32.125 -91.453125 "/></g></g></g></g></g><g transform="matrix(1, 0, 0, 1, 657, 140)"><g clip-path="url(#0aa5ede23b)"><g fill="#93e816" fill-opacity="1"><g transform="translate(0.481801, 29.988333)"><g><path d="M 3.265625 -2.15625 C 3.265625 -2.925781 3.523438 -3.570312 4.046875 -4.09375 C 4.578125 -4.625 5.226562 -4.890625 6 -4.890625 C 6.78125 -4.890625 7.429688 -4.625 7.953125 -4.09375 C 8.472656 -3.570312 8.734375 -2.925781 8.734375 -2.15625 C 8.734375 -1.375 8.472656 -0.722656 7.953125 -0.203125 C 7.429688 0.316406 6.78125 0.578125 6 0.578125 C 5.226562 0.578125 4.578125 0.316406 4.046875 -0.203125 C 3.523438 -0.722656 3.265625 -1.375 3.265625 -2.15625 Z M 3.265625 -2.15625 "/></g></g></g><g fill="#93e816" fill-opacity="1"><g transform="translate(12.493048, 29.988333)"><g><path d="M 1.921875 -15.1875 C 1.921875 -16.113281 2.109375 -17.003906 2.484375 -17.859375 C 2.859375 -18.710938 3.410156 -19.46875 4.140625 -20.125 C 4.878906 -20.78125 5.773438 -21.300781 6.828125 -21.6875 C 7.890625 -22.070312 9.09375 -22.265625 10.4375 -22.265625 C 11.96875 -22.265625 13.425781 -22.023438 14.8125 -21.546875 C 16.195312 -21.078125 17.609375 -20.316406 19.046875 -19.265625 L 16.40625 -16 L 16.3125 -16.09375 C 15.53125 -16.71875 14.660156 -17.257812 13.703125 -17.71875 C 12.753906 -18.1875 11.710938 -18.421875 10.578125 -18.421875 C 10.066406 -18.421875 9.570312 -18.359375 9.09375 -18.234375 C 8.613281 -18.117188 8.1875 -17.941406 7.8125 -17.703125 C 7.445312 -17.460938 7.148438 -17.175781 6.921875 -16.84375 C 6.703125 -16.519531 6.59375 -16.132812 6.59375 -15.6875 C 6.59375 -15.03125 6.828125 -14.53125 7.296875 -14.1875 C 7.773438 -13.84375 8.476562 -13.582031 9.40625 -13.40625 L 14.109375 -12.5 C 16.054688 -12.144531 17.5 -11.492188 18.4375 -10.546875 C 19.382812 -9.609375 19.859375 -8.332031 19.859375 -6.71875 C 19.859375 -5.914062 19.6875 -5.078125 19.34375 -4.203125 C 19 -3.335938 18.453125 -2.554688 17.703125 -1.859375 C 16.953125 -1.160156 16 -0.578125 14.84375 -0.109375 C 13.695312 0.347656 12.304688 0.578125 10.671875 0.578125 C 8.878906 0.578125 7.179688 0.273438 5.578125 -0.328125 C 3.984375 -0.941406 2.421875 -1.90625 0.890625 -3.21875 L 4.078125 -6.453125 C 4.109375 -6.390625 4.3125 -6.1875 4.6875 -5.84375 C 5.0625 -5.5 5.550781 -5.132812 6.15625 -4.75 C 6.769531 -4.363281 7.476562 -4.019531 8.28125 -3.71875 C 9.09375 -3.414062 9.960938 -3.265625 10.890625 -3.265625 C 11.546875 -3.265625 12.140625 -3.347656 12.671875 -3.515625 C 13.210938 -3.679688 13.671875 -3.898438 14.046875 -4.171875 C 14.421875 -4.441406 14.703125 -4.738281 14.890625 -5.0625 C 15.085938 -5.394531 15.1875 -5.707031 15.1875 -6 C 15.1875 -6.78125 14.898438 -7.359375 14.328125 -7.734375 C 13.765625 -8.109375 13.113281 -8.367188 12.375 -8.515625 L 9.71875 -9 C 8.226562 -9.269531 6.984375 -9.597656 5.984375 -9.984375 C 4.984375 -10.378906 4.179688 -10.828125 3.578125 -11.328125 C 2.984375 -11.835938 2.554688 -12.40625 2.296875 -13.03125 C 2.046875 -13.664062 1.921875 -14.382812 1.921875 -15.1875 Z M 1.921875 -15.1875 "/></g></g></g><g fill="#93e816" fill-opacity="1"><g transform="translate(33.243821, 29.988333)"><g><path d="M 7.703125 -21.6875 L 7.703125 0 L 3.046875 0 L 3.046875 -21.6875 Z M 2.78125 -26.125 C 2.78125 -26.84375 3.03125 -27.453125 3.53125 -27.953125 C 4.039062 -28.460938 4.65625 -28.71875 5.375 -28.71875 C 6.09375 -28.71875 6.707031 -28.460938 7.21875 -27.953125 C 7.726562 -27.453125 7.984375 -26.84375 7.984375 -26.125 C 7.984375 -25.40625 7.726562 -24.789062 7.21875 -24.28125 C 6.707031 -23.78125 6.09375 -23.53125 5.375 -23.53125 C 4.65625 -23.53125 4.039062 -23.78125 3.53125 -24.28125 C 3.03125 -24.789062 2.78125 -25.40625 2.78125 -26.125 Z M 2.78125 -26.125 "/></g></g></g><g fill="#93e816" fill-opacity="1"><g transform="translate(44.000162, 29.988333)"><g><path d="M 8.296875 -28.71875 L 8.296875 -21.6875 L 12.015625 -21.6875 L 12.015625 -17.296875 L 8.296875 -17.296875 L 8.296875 -8.5625 C 8.296875 -7.332031 8.472656 -6.429688 8.828125 -5.859375 C 9.179688 -5.296875 9.644531 -4.851562 10.21875 -4.53125 L 12.734375 -3.09375 L 10.671875 0.578125 C 9.648438 0.0976562 8.707031 -0.382812 7.84375 -0.875 C 6.976562 -1.363281 6.226562 -1.914062 5.59375 -2.53125 C 4.96875 -3.144531 4.484375 -3.867188 4.140625 -4.703125 C 3.796875 -5.535156 3.625 -6.535156 3.625 -7.703125 L 3.625 -17.296875 L 0.984375 -17.296875 L 0.984375 -21.6875 L 3.625 -21.6875 L 3.625 -27.421875 Z M 8.296875 -28.71875 "/></g></g></g><g fill="#93e816" fill-opacity="1"><g transform="translate(57.266316, 29.988333)"><g><path d="M 13 -18.15625 C 11.46875 -18.15625 10.15625 -17.695312 9.0625 -16.78125 C 7.976562 -15.875 7.257812 -14.640625 6.90625 -13.078125 L 19.453125 -13.078125 C 19.003906 -14.609375 18.222656 -15.835938 17.109375 -16.765625 C 16.003906 -17.691406 14.632812 -18.15625 13 -18.15625 Z M 1.703125 -10.84375 C 1.703125 -12.3125 1.96875 -13.726562 2.5 -15.09375 C 3.039062 -16.46875 3.828125 -17.6875 4.859375 -18.75 C 5.890625 -19.8125 7.144531 -20.660156 8.625 -21.296875 C 10.101562 -21.941406 11.769531 -22.265625 13.625 -22.265625 C 14.789062 -22.265625 16.050781 -22.019531 17.40625 -21.53125 C 18.769531 -21.039062 20.019531 -20.265625 21.15625 -19.203125 C 22.289062 -18.140625 23.222656 -16.785156 23.953125 -15.140625 C 24.679688 -13.503906 25.003906 -11.535156 24.921875 -9.234375 L 6.90625 -9.234375 C 6.957031 -8.398438 7.1875 -7.640625 7.59375 -6.953125 C 8 -6.265625 8.5 -5.664062 9.09375 -5.15625 C 9.695312 -4.644531 10.382812 -4.25 11.15625 -3.96875 C 11.9375 -3.6875 12.726562 -3.546875 13.53125 -3.546875 C 14.875 -3.546875 16.066406 -3.859375 17.109375 -4.484375 C 18.160156 -5.109375 19.0625 -5.914062 19.8125 -6.90625 L 23.75 -4.703125 C 22.945312 -3.691406 22.101562 -2.847656 21.21875 -2.171875 C 20.332031 -1.503906 19.457031 -0.96875 18.59375 -0.5625 C 17.726562 -0.15625 16.867188 0.132812 16.015625 0.3125 C 15.171875 0.488281 14.375 0.578125 13.625 0.578125 C 11.769531 0.578125 10.109375 0.257812 8.640625 -0.375 C 7.179688 -1.019531 5.9375 -1.875 4.90625 -2.9375 C 3.875 -4 3.082031 -5.21875 2.53125 -6.59375 C 1.976562 -7.96875 1.703125 -9.382812 1.703125 -10.84375 Z M 1.703125 -10.84375 "/></g></g></g></g></g><g transform="matrix(1, 0, 0, 1, 0, 74)"><g clip-path="url(#afbcf2b738)"><g clip-path="url(#f606717047)"><g fill="#132135" fill-opacity="1"><g transform="translate(15.413597, 1.253269)"><g><path d="M 135.203125 37.03125 L 41.125 37.03125 C 35.238281 37.03125 30.929688 37.851562 28.203125 39.5 C 25.472656 41.15625 23.320312 43.414062 21.75 46.28125 L 14.859375 58.34375 L -2.796875 48.4375 C -0.503906 43.5625 1.820312 39.039062 4.1875 34.875 C 6.5625 30.71875 9.21875 27.128906 12.15625 24.109375 C 15.101562 21.097656 18.585938 18.765625 22.609375 17.109375 C 26.628906 15.460938 31.4375 14.640625 37.03125 14.640625 L 135.203125 14.640625 Z M 135.203125 37.03125 "/></g></g></g></g></g></g></svg>